<svg xmlns="http://www.w3.org/2000/svg" xmlns:xlink="http://www.w3.org/1999/xlink" viewBox="0 0 121.31 106.39"><defs><linearGradient id="aaed2082-f375-492f-96f8-cdcea7393355" x1="-242.34" y1="-131.44" x2="-242.34" y2="-249.76" gradientTransform="translate(-129.94 295.54) rotate(90)" gradientUnits="userSpaceOnUse"><stop offset="0" stop-color="#ffe73d"/><stop offset="1" stop-color="#ffd000"/></linearGradient></defs><g id="b4e9130f-a941-4f05-8c37-0ac179dd9d9e" data-name="レイヤー 2"><g id="a4c63b89-9007-41d2-bef5-6d0befb878e8" data-name="レイヤー 1"><path d="M101,90.62l16.53-9.54a4.56,4.56,0,0,0,0-7.89L101,63.65V42.74l16.53-9.54a4.56,4.56,0,0,0,0-7.89L101,15.77v-8a4.28,4.28,0,0,0-4.28-4.28H5.79A4.29,4.29,0,0,0,1.5,7.72V98.66A4.29,4.29,0,0,0,5.79,103H96.73A4.29,4.29,0,0,0,101,98.66Z" fill="url(#aaed2082-f375-492f-96f8-cdcea7393355)"/><path d="M1.5,98.66A4.29,4.29,0,0,0,5.79,103H42.51c11.41-10.21,19-28.67,19-49.76s-7.63-39.54-19-49.75H5.79A4.29,4.29,0,0,0,1.5,7.72Z" fill="#fff"/><path d="M101,90.62l16.53-9.54a4.56,4.56,0,0,0,0-7.89L101,63.65V42.74l16.53-9.54a4.56,4.56,0,0,0,0-7.89L101,15.77v-8a4.28,4.28,0,0,0-4.28-4.28H5.79A4.29,4.29,0,0,0,1.5,7.72V98.66A4.29,4.29,0,0,0,5.79,103H96.73A4.29,4.29,0,0,0,101,98.66Z" fill="none" stroke="#534741" stroke-linecap="round" stroke-linejoin="round" stroke-width="3"/><path d="M112.38,75.76l-11.09-6.4a1.59,1.59,0,0,0-2.38,1.37V83.54a1.59,1.59,0,0,0,2.38,1.38l11.09-6.41A1.59,1.59,0,0,0,112.38,75.76Z" fill="#fff"/><path d="M112.38,27.88l-11.09-6.41a1.59,1.59,0,0,0-2.38,1.38V35.66A1.59,1.59,0,0,0,101.29,37l11.09-6.4A1.59,1.59,0,0,0,112.38,27.88Z" fill="#fff"/><circle cx="61.6" cy="25.69" r="5" fill="#534741" stroke="#534741" stroke-miterlimit="10" stroke-width="2"/><circle cx="61.6" cy="80.69" r="5" fill="#534741" stroke="#534741" stroke-miterlimit="10" stroke-width="2"/><polyline points="32.98 1.5 43.35 19.45 53.72 1.5" fill="none" stroke="#534741" stroke-linecap="round" stroke-linejoin="round" stroke-width="3"/><line x1="43.35" y1="19.45" x2="43.35" y2="1.5" fill="none" stroke="#534741" stroke-linecap="round" stroke-linejoin="round" stroke-width="3"/><polyline points="53.72 104.89 43.35 86.94 32.98 104.89" fill="none" stroke="#534741" stroke-linecap="round" stroke-linejoin="round" stroke-width="3"/><line x1="43.35" y1="86.93" x2="43.35" y2="104.89" fill="none" stroke="#534741" stroke-linecap="round" stroke-linejoin="round" stroke-width="3"/><rect x="-0.69" y="5.63" width="25.2" height="20.81" rx="7" transform="translate(27.94 4.13) rotate(90)" fill="#fff"/><path d="M19.12,28.63H8.5a7,7,0,0,1-7-7V10.44a7,7,0,0,1,7-7H19.12" fill="none" stroke="#534741" stroke-linecap="round" stroke-linejoin="round" stroke-width="3"/><rect x="-0.69" y="79.95" width="25.2" height="20.81" rx="7" transform="translate(102.26 78.45) rotate(90)" fill="#fff"/><path d="M19.12,103H8.5a7,7,0,0,1-7-7V84.75a7,7,0,0,1,7-7H19.12" fill="none" stroke="#534741" stroke-linecap="round" stroke-linejoin="round" stroke-width="3"/><path d="M39.6,76.26A14,14,0,0,1,50.35,53.19,14,14,0,0,1,39.6,30.13" fill="none" stroke="#534741" stroke-linecap="round" stroke-linejoin="round" stroke-width="3"/></g></g></svg>