<svg xmlns="http://www.w3.org/2000/svg" xmlns:xlink="http://www.w3.org/1999/xlink" viewBox="0 0 106.39 121.31"><defs><linearGradient id="b795167a-7599-4f1e-89da-39768b16d0ec" x1="53.19" y1="119.81" x2="53.19" y2="1.5" gradientUnits="userSpaceOnUse"><stop offset="0" stop-color="#ffe73d"/><stop offset="1" stop-color="#ffd000"/></linearGradient></defs><g id="e9806607-062a-4dc5-8271-3803198c4a72" data-name="レイヤー 2"><g id="e953308d-a069-4adf-98e8-0062e615a5bf" data-name="レイヤー 1"><path d="M90.62,20.3,81.08,3.78a4.55,4.55,0,0,0-7.89,0L63.65,20.3H42.74L33.2,3.78a4.55,4.55,0,0,0-7.89,0L15.77,20.3h-8a4.29,4.29,0,0,0-4.28,4.29v90.94a4.28,4.28,0,0,0,4.28,4.28H98.66a4.28,4.28,0,0,0,4.29-4.28V24.59a4.29,4.29,0,0,0-4.29-4.29Z" fill="url(#b795167a-7599-4f1e-89da-39768b16d0ec)"/><path d="M98.66,119.81a4.28,4.28,0,0,0,4.29-4.28V78.81c-10.21-11.42-28.67-19-49.76-19s-39.54,7.62-49.75,19v36.72a4.28,4.28,0,0,0,4.28,4.28Z" fill="#fff"/><path d="M90.62,20.3,81.08,3.78a4.55,4.55,0,0,0-7.89,0L63.65,20.3H42.74L33.2,3.78a4.55,4.55,0,0,0-7.89,0L15.77,20.3h-8a4.29,4.29,0,0,0-4.28,4.29v90.94a4.28,4.28,0,0,0,4.28,4.28H98.66a4.28,4.28,0,0,0,4.29-4.28V24.59a4.29,4.29,0,0,0-4.29-4.29Z" fill="none" stroke="#534741" stroke-linecap="round" stroke-linejoin="round" stroke-width="3"/><path d="M75.76,8.93,69.36,20a1.59,1.59,0,0,0,1.37,2.38H83.54A1.59,1.59,0,0,0,84.92,20L78.51,8.93A1.59,1.59,0,0,0,75.76,8.93Z" fill="#fff"/><path d="M27.88,8.93,21.47,20a1.59,1.59,0,0,0,1.38,2.38H35.66A1.59,1.59,0,0,0,37,20l-6.4-11.1A1.59,1.59,0,0,0,27.88,8.93Z" fill="#fff"/><circle cx="25.69" cy="59.71" r="5" fill="#534741" stroke="#534741" stroke-miterlimit="10" stroke-width="2"/><circle cx="80.69" cy="59.71" r="5" fill="#534741" stroke="#534741" stroke-miterlimit="10" stroke-width="2"/><polyline points="1.5 88.33 19.45 77.96 1.5 67.6" fill="none" stroke="#534741" stroke-linecap="round" stroke-linejoin="round" stroke-width="3"/><line x1="19.45" y1="77.96" x2="1.5" y2="77.96" fill="none" stroke="#534741" stroke-linecap="round" stroke-linejoin="round" stroke-width="3"/><polyline points="104.89 67.6 86.94 77.96 104.89 88.33" fill="none" stroke="#534741" stroke-linecap="round" stroke-linejoin="round" stroke-width="3"/><line x1="86.93" y1="77.96" x2="104.89" y2="77.96" fill="none" stroke="#534741" stroke-linecap="round" stroke-linejoin="round" stroke-width="3"/><rect x="3.44" y="99" width="25.2" height="20.81" rx="7" fill="#fff"/><path d="M28.63,102.19v10.62a7,7,0,0,1-7,7H10.44a7,7,0,0,1-7-7V102.19" fill="none" stroke="#534741" stroke-linecap="round" stroke-linejoin="round" stroke-width="3"/><rect x="77.75" y="99" width="25.2" height="20.81" rx="7" fill="#fff"/><path d="M103,102.19v10.62a7,7,0,0,1-7,7H84.75a7,7,0,0,1-7-7V102.19" fill="none" stroke="#534741" stroke-linecap="round" stroke-linejoin="round" stroke-width="3"/><path d="M76.26,81.72A14,14,0,0,1,53.19,71,14,14,0,0,1,30.13,81.72" fill="none" stroke="#534741" stroke-linecap="round" stroke-linejoin="round" stroke-width="3"/></g></g></svg>