<svg xmlns="http://www.w3.org/2000/svg" xmlns:xlink="http://www.w3.org/1999/xlink" viewBox="0 0 103.32 119.54"><defs><linearGradient id="f13bfba1-5666-4811-8a4c-ac392765607c" x1="51.66" y1="118.04" x2="51.66" y2="1.5" gradientUnits="userSpaceOnUse"><stop offset="0" stop-color="#ffe73d"/><stop offset="1" stop-color="#ffd000"/></linearGradient></defs><g id="f970aeaf-a59c-41da-9928-a1b58c9deb5e" data-name="レイヤー 2"><g id="aff9fb13-2656-453a-b8ad-eddb5cff626c" data-name="レイヤー 1"><path d="M96.28,17.72H84.58l-8-13.83a4.78,4.78,0,0,0-8.28,0l-8,13.83H7A5.54,5.54,0,0,0,1.5,23.26V112.5A5.54,5.54,0,0,0,7,118H96.28a5.54,5.54,0,0,0,5.54-5.54V23.26A5.54,5.54,0,0,0,96.28,17.72Z" fill="url(#f13bfba1-5666-4811-8a4c-ac392765607c)"/><path d="M95.39,55h6.42a0,0,0,0,1,0,0v63a0,0,0,0,1,0,0h-63a0,0,0,0,1,0,0v-6.42A56.58,56.58,0,0,1,95.39,55Z" fill="#fff"/><path d="M101.82,65.1A12.92,12.92,0,0,1,80.59,75" fill="none" stroke="#534741" stroke-linecap="round" stroke-linejoin="round" stroke-width="3"/><circle cx="76.77" cy="55.65" r="5.57" fill="#534741"/><path d="M96.28,17.72H84.58l-8-13.83a4.78,4.78,0,0,0-8.28,0l-8,13.83H7A5.54,5.54,0,0,0,1.5,23.26V112.5A5.54,5.54,0,0,0,7,118H96.28a5.54,5.54,0,0,0,5.54-5.54V23.26A5.54,5.54,0,0,0,96.28,17.72Z" fill="none" stroke="#534741" stroke-miterlimit="10" stroke-width="3"/><rect x="75.93" y="92.14" width="28.37" height="23.43" rx="7" transform="translate(-13.74 193.97) rotate(-90)" fill="#fff"/><path d="M62.85,89.67H93.94a7.88,7.88,0,0,1,7.88,7.88v12.61A7.88,7.88,0,0,1,93.94,118H62.85" fill="none" stroke="#534741" stroke-linecap="round" stroke-linejoin="round" stroke-width="3"/><polyline points="48.96 80.64 68.95 69.1 48.96 57.56" fill="none" stroke="#534741" stroke-linecap="round" stroke-linejoin="round" stroke-width="3"/><line x1="68.95" y1="69.1" x2="48.96" y2="69.1" fill="none" stroke="#534741" stroke-linecap="round" stroke-linejoin="round" stroke-width="3"/><path d="M71.64,8.76,65.73,19a1.59,1.59,0,0,0,1.37,2.38H78.93A1.59,1.59,0,0,0,80.31,19L74.39,8.76A1.59,1.59,0,0,0,71.64,8.76Z" fill="#fff"/></g></g></svg>