<svg xmlns="http://www.w3.org/2000/svg" xmlns:xlink="http://www.w3.org/1999/xlink" viewBox="0 0 113.8 224.53"><defs><linearGradient id="acabb3ca-dc5b-40cf-9701-0079536fd527" x1="-18.03" y1="211.68" x2="-18.03" y2="63.04" gradientTransform="translate(164.5 -24.95) rotate(45.13)" gradientUnits="userSpaceOnUse"><stop offset="0" stop-color="#47c7b3"/><stop offset="0.21" stop-color="#42c3b2"/><stop offset="0.48" stop-color="#32b6ae"/><stop offset="0.77" stop-color="#18a2a8"/><stop offset="1" stop-color="#008fa2"/></linearGradient><linearGradient id="be52bc94-cceb-4c9d-9e69-f62d9a8f20e8" x1="-152.07" y1="78.24" x2="-152.07" y2="-70.4" gradientTransform="matrix(0.71, -0.71, -0.71, -0.71, 164.5, 60.34)" xlink:href="#acabb3ca-dc5b-40cf-9701-0079536fd527"/></defs><g id="b1f134bb-6805-4c8a-86ba-c679f797d096" data-name="レイヤー 2"><g id="b64f2534-4ad5-4dab-86bc-c96396061d7f" data-name="レイヤー 1"><path d="M1.7,111.55C27.4,113.75,137.43,37.21,107,6.68l.14.14C76.79-23.7-.25,86,1.83,111.69Z" stroke="#534741" stroke-linecap="round" stroke-linejoin="round" stroke-width="3" fill="url(#acabb3ca-dc5b-40cf-9701-0079536fd527)"/><path d="M1.7,111.55C18.8,87.2,75.46,8.77,107.18,6.82" fill="none" stroke="#534741" stroke-linecap="round" stroke-linejoin="round" stroke-width="3"/><path d="M1.5,112.15c24.43-17,103.11-73.29,105.21-105" fill="none" stroke="#534741" stroke-linecap="round" stroke-linejoin="round" stroke-width="3"/><path d="M1.7,113C27.4,110.79,137.43,187.33,107,217.85l.14-.14C76.79,248.24-.25,138.56,1.83,112.85Z" stroke="#534741" stroke-linecap="round" stroke-linejoin="round" stroke-width="3" fill="url(#be52bc94-cceb-4c9d-9e69-f62d9a8f20e8)"/><path d="M1.7,113c17.1,24.35,73.76,102.78,105.48,104.73" fill="none" stroke="#534741" stroke-linecap="round" stroke-linejoin="round" stroke-width="3"/><path d="M1.5,112.38c24.43,17,103.11,73.29,105.21,105" fill="none" stroke="#534741" stroke-linecap="round" stroke-linejoin="round" stroke-width="3"/></g></g></svg>