<svg xmlns="http://www.w3.org/2000/svg" xmlns:xlink="http://www.w3.org/1999/xlink" viewBox="0 0 224.53 113.8"><defs><linearGradient id="bf2792cf-bd97-400d-9e76-4e793c91d2b1" x1="37.34" y1="156.32" x2="37.34" y2="7.68" gradientTransform="translate(-25.13 27.6) rotate(-44.87)" gradientUnits="userSpaceOnUse"><stop offset="0" stop-color="#47c7b3"/><stop offset="0.21" stop-color="#42c3b2"/><stop offset="0.48" stop-color="#32b6ae"/><stop offset="0.77" stop-color="#18a2a8"/><stop offset="1" stop-color="#008fa2"/></linearGradient><linearGradient id="aea14d39-970a-4cf9-99f8-f445e2941652" x1="-96.71" y1="22.88" x2="-96.71" y2="-125.76" gradientTransform="matrix(-0.71, -0.71, -0.71, 0.71, 60.52, 27.6)" xlink:href="#bf2792cf-bd97-400d-9e76-4e793c91d2b1"/></defs><g id="bfdafa48-eada-4720-8500-69c130794e42" data-name="レイヤー 2"><g id="b6d909ae-1edf-41ea-bc14-9294325d82e1" data-name="レイヤー 1"><path d="M111.55,112.11C113.75,86.41,37.21-23.62,6.68,6.76l.14-.13C-23.7,37,86,114.05,111.69,112Z" stroke="#534741" stroke-linecap="round" stroke-linejoin="round" stroke-width="3" fill="url(#bf2792cf-bd97-400d-9e76-4e793c91d2b1)"/><path d="M111.55,112.11C87.2,95,8.77,38.35,6.82,6.63" fill="none" stroke="#534741" stroke-linecap="round" stroke-linejoin="round" stroke-width="3"/><path d="M112.15,112.3C95.16,87.87,38.86,9.19,7.15,7.09" fill="none" stroke="#534741" stroke-linecap="round" stroke-linejoin="round" stroke-width="3"/><path d="M113,112.11C110.79,86.41,187.33-23.62,217.85,6.76l-.14-.13C248.24,37,138.56,114.05,112.85,112Z" stroke="#534741" stroke-linecap="round" stroke-linejoin="round" stroke-width="3" fill="url(#aea14d39-970a-4cf9-99f8-f445e2941652)"/><path d="M113,112.11C137.33,95,215.76,38.35,217.71,6.63" fill="none" stroke="#534741" stroke-linecap="round" stroke-linejoin="round" stroke-width="3"/><path d="M112.38,112.3c17-24.43,73.29-103.11,105-105.21" fill="none" stroke="#534741" stroke-linecap="round" stroke-linejoin="round" stroke-width="3"/></g></g></svg>