<svg xmlns="http://www.w3.org/2000/svg" xmlns:xlink="http://www.w3.org/1999/xlink" viewBox="0 0 503 194.91"><defs><linearGradient id="eb8e3c09-1ee8-45c8-8335-9757d4fa641c" x1="254.85" y1="200.33" x2="254.85" y2="-299.67" gradientTransform="translate(201.83 -158.08) rotate(90)" gradientUnits="userSpaceOnUse"><stop offset="0" stop-color="#ffe73d"/><stop offset="1" stop-color="#ffd000"/></linearGradient><linearGradient id="a6356cf4-1087-43a2-9e63-5233f93a381c" x1="278.96" y1="-185.22" x2="278.96" y2="-293.72" gradientTransform="translate(327.77 407.8) rotate(-51.24)" gradientUnits="userSpaceOnUse"><stop offset="0" stop-color="#47c7b3"/><stop offset="0.21" stop-color="#42c3b2"/><stop offset="0.48" stop-color="#32b6ae"/><stop offset="0.77" stop-color="#18a2a8"/><stop offset="1" stop-color="#008fa2"/></linearGradient><linearGradient id="b74af31c-cb21-43a2-8f3d-751dfa54111d" x1="371.7" y1="-259.69" x2="371.7" y2="-368.19" gradientTransform="matrix(0.63, 0.78, 0.78, -0.63, 327.77, -331.83)" xlink:href="#a6356cf4-1087-43a2-9e63-5233f93a381c"/></defs><g id="ae50cd2a-2402-40a1-b18f-4d0094dedd43" data-name="レイヤー 2"><g id="e03e5edf-3b07-4d5d-a094-ce7144c01bdc" data-name="レイヤー 1"><path d="M477.07,145.74l22.32-12.89a4.21,4.21,0,0,0,0-7.3l-22.32-12.89V80.89L499.39,68a4.21,4.21,0,0,0,0-7.3L477.07,47.81V42.73a8.11,8.11,0,0,0-8.11-8.1H9.61a8.11,8.11,0,0,0-8.11,8.1V57.86A8.11,8.11,0,0,0,9.61,66H46.36a8.11,8.11,0,0,1,8.1,8.11v1.08a8.1,8.1,0,0,1-8.1,8.1H27.44a14.05,14.05,0,0,0-14,14.06h0a14,14,0,0,0,14.05,14.05H46.36a8.1,8.1,0,0,1,8.1,8.1h0a8.11,8.11,0,0,1-8.1,8.11H9.61a8.11,8.11,0,0,0-8.11,8.11v15.13a8.11,8.11,0,0,0,8.11,8.1H469a8.11,8.11,0,0,0,8.11-8.1Z" stroke="#534741" stroke-linecap="round" stroke-linejoin="round" stroke-width="3" fill="url(#eb8e3c09-1ee8-45c8-8335-9757d4fa641c)"/><rect x="195.57" y="-55.48" width="67.01" height="304.51" rx="31" transform="translate(325.86 -132.31) rotate(90)" fill="#fff"/><path d="M358,74.38C357.47,55.56,293-18.07,273.35,6.44l.09-.1c-19.68,24.51,66.12,71.52,84.61,67.93Z" stroke="#534741" stroke-linecap="round" stroke-linejoin="round" stroke-width="3" fill="url(#a6356cf4-1087-43a2-9e63-5233f93a381c)"/><path d="M358,74.38c-19-10.44-80.53-45.19-84.52-68" fill="none" stroke="#534741" stroke-linecap="round" stroke-linejoin="round" stroke-width="3"/><path d="M358.41,74.47C344.11,58.13,296.89,5.6,273.72,6.65" fill="none" stroke="#534741" stroke-linecap="round" stroke-linejoin="round" stroke-width="3"/><path d="M358,120.53c-.49,18.82-64.92,92.45-84.61,67.93l.09.11c-19.68-24.51,66.12-71.52,84.61-67.93Z" stroke="#534741" stroke-linecap="round" stroke-linejoin="round" stroke-width="3" fill="url(#b74af31c-cb21-43a2-8f3d-751dfa54111d)"/><path d="M358,120.53c-19,10.44-80.53,45.19-84.52,68" fill="none" stroke="#534741" stroke-linecap="round" stroke-linejoin="round" stroke-width="3"/><path d="M358.41,120.44c-14.3,16.34-61.52,68.87-84.69,67.82" fill="none" stroke="#534741" stroke-linecap="round" stroke-linejoin="round" stroke-width="3"/><circle cx="426.81" cy="67.05" r="5.4" fill="#534741" stroke="#534741" stroke-miterlimit="10" stroke-width="2"/><circle cx="426.81" cy="126.5" r="5.4" fill="#534741" stroke="#534741" stroke-miterlimit="10" stroke-width="2"/><path d="M394.38,121.7A15.18,15.18,0,0,1,406,96.77a15.17,15.17,0,0,1-11.62-24.92" fill="none" stroke="#534741" stroke-linecap="round" stroke-linejoin="round" stroke-width="3"/><path d="M491,127l-12.38-7.15a1.59,1.59,0,0,0-2.38,1.38v14.29a1.59,1.59,0,0,0,2.38,1.37L491,129.77A1.59,1.59,0,0,0,491,127Z" fill="#fff"/><path d="M491,63.52l-12.38-7.14a1.58,1.58,0,0,0-2.38,1.37V72a1.58,1.58,0,0,0,2.38,1.37L491,66.27A1.59,1.59,0,0,0,491,63.52Z" fill="#fff"/><rect x="1.24" y="37.58" width="28.11" height="25.02" rx="6.05" transform="translate(65.39 34.8) rotate(90)" fill="#fff"/><rect x="1.51" y="130.65" width="28.38" height="25.26" rx="6.05" transform="translate(158.98 127.59) rotate(90)" fill="#fff"/><polyline points="396.55 39.85 407.75 59.25 418.96 39.85" fill="none" stroke="#534741" stroke-linecap="round" stroke-linejoin="round" stroke-width="3"/><line x1="407.76" y1="59.25" x2="407.76" y2="39.85" fill="none" stroke="#534741" stroke-linecap="round" stroke-linejoin="round" stroke-width="3"/><polyline points="418.96 153.57 407.75 134.17 396.55 153.57" fill="none" stroke="#534741" stroke-linecap="round" stroke-linejoin="round" stroke-width="3"/><line x1="407.76" y1="134.17" x2="407.76" y2="153.57" fill="none" stroke="#534741" stroke-linecap="round" stroke-linejoin="round" stroke-width="3"/><rect x="333.05" y="37" width="27.23" height="22.49" rx="7" transform="translate(394.91 -298.43) rotate(90)" fill="#fff"/><path d="M372.84,61.86H343a7.57,7.57,0,0,1-7.57-7.57V42.19A7.56,7.56,0,0,1,343,34.63h29.85" fill="none" stroke="#534741" stroke-linecap="round" stroke-linejoin="round" stroke-width="3"/><rect x="333.05" y="134.06" width="27.23" height="22.49" rx="7" transform="translate(491.98 -201.36) rotate(90)" fill="#fff"/><path d="M372.84,158.92H343a7.56,7.56,0,0,1-7.57-7.56v-12.1a7.57,7.57,0,0,1,7.57-7.57h29.85" fill="none" stroke="#534741" stroke-linecap="round" stroke-linejoin="round" stroke-width="3"/></g></g></svg>