<svg xmlns="http://www.w3.org/2000/svg" xmlns:xlink="http://www.w3.org/1999/xlink" viewBox="0 0 258.08 113.52"><defs><linearGradient id="a29be0fe-fb9e-4da6-a191-f66330e689b3" x1="3.1" y1="56.76" x2="243.81" y2="56.76" gradientUnits="userSpaceOnUse"><stop offset="0" stop-color="#ffe73d"/><stop offset="1" stop-color="#ffd000"/></linearGradient></defs><g id="e19fa565-4ef6-4b3f-a440-28d8277ebea4" data-name="レイヤー 2"><g id="e4046b45-05f1-4d37-83d0-8a7db2c8a337" data-name="レイヤー 1"><path d="M235.35,20.68H223.2L213.42,3.75a4.49,4.49,0,0,0-7.78,0l-9.78,16.93H12.19a9.09,9.09,0,0,0,0,18.18H13v64.7A8.46,8.46,0,0,0,21.49,112H235.35a8.46,8.46,0,0,0,8.46-8.46V29.14A8.46,8.46,0,0,0,235.35,20.68Z" fill="url(#a29be0fe-fb9e-4da6-a191-f66330e689b3)"/><path d="M243.81,57.82a11.61,11.61,0,0,1-19.07,8.89" fill="none" stroke="#534741" stroke-linecap="round" stroke-linejoin="round" stroke-width="3"/><polyline points="199.01 71.46 216.96 61.1 199.01 50.73" fill="none" stroke="#534741" stroke-linecap="round" stroke-linejoin="round" stroke-width="3"/><line x1="216.96" y1="61.1" x2="199.01" y2="61.1" fill="none" stroke="#534741" stroke-linecap="round" stroke-linejoin="round" stroke-width="3"/><path d="M199.43,111.12A24.08,24.08,0,0,0,175.35,87H77.44a24.08,24.08,0,0,0-24.08,24.08" fill="#fff"/><path d="M235.35,20.68H223.2L213.42,3.75a4.49,4.49,0,0,0-7.78,0l-9.78,16.93H12.19a9.09,9.09,0,0,0,0,18.18H13v64.7A8.46,8.46,0,0,0,21.49,112H235.35a8.46,8.46,0,0,0,8.46-8.46V29.14A8.46,8.46,0,0,0,235.35,20.68Z" fill="none" stroke="#534741" stroke-linecap="round" stroke-linejoin="round" stroke-width="3"/><rect x="233.58" y="89.02" width="25.2" height="20.81" rx="7" transform="translate(146.75 345.6) rotate(-90)" fill="#fff"/><path d="M222,86.83h27.62a7,7,0,0,1,7,7V105a7,7,0,0,1-7,7H222" fill="none" stroke="#534741" stroke-linecap="round" stroke-linejoin="round" stroke-width="3"/><rect x="-0.69" y="89.02" width="25.2" height="20.81" rx="7" transform="translate(111.33 87.52) rotate(90)" fill="#fff"/><path d="M36.12,112H8.5a7,7,0,0,1-7-7V93.83a7,7,0,0,1,7-7H36.12" fill="none" stroke="#534741" stroke-linecap="round" stroke-linejoin="round" stroke-width="3"/><circle cx="221.96" cy="45.73" r="5" fill="#534741"/><path d="M208.59,8.46l-6.4,11.09a1.59,1.59,0,0,0,1.37,2.38h12.81a1.59,1.59,0,0,0,1.38-2.38L211.34,8.46A1.59,1.59,0,0,0,208.59,8.46Z" fill="#fff"/></g></g></svg>